<?xml version="1.0" encoding="UTF-8"?>
<svg xmlns="http://www.w3.org/2000/svg" xmlns:xlink="http://www.w3.org/1999/xlink" width="500pt" height="500pt" viewBox="0 0 500 500" version="1.1">
<g id="surface273946">
<path style=" stroke:none;fill-rule:nonzero;fill:rgb(100%,100%,100%);fill-opacity:0.4;" d="M 153.0625 98.199219 C 150.511719 98.691406 148.5 100.625 147.90625 103.148438 C 147.90625 103.148438 144.398438 117.640625 144.398438 144.398438 L 144.398438 382 C 144.398438 392.855469 153.347656 401.800781 164.199219 401.800781 L 309.398438 401.800781 C 320.253906 401.800781 329.199219 392.855469 329.199219 382 L 329.199219 352.300781 C 329.199219 350.339844 330.539062 349 332.5 349 C 357.121094 349 378.132812 338.144531 392.519531 320.742188 C 406.90625 303.339844 415 279.417969 415 253.300781 L 415 229.582031 C 415 197.25 388.546875 170.800781 356.21875 170.800781 L 350.03125 170.800781 C 338.507812 170.800781 329.199219 161.492188 329.199219 149.96875 L 329.199219 144.398438 C 329.199219 117.40625 325.695312 103.148438 325.695312 103.148438 C 324.945312 100.238281 322.316406 98.199219 319.300781 98.199219 L 154.300781 98.199219 C 154.09375 98.199219 153.886719 98.199219 153.679688 98.199219 C 153.476562 98.199219 153.269531 98.199219 153.0625 98.199219 Z M 160.28125 111.398438 L 313.320312 111.398438 C 313.9375 114.183594 316 121.894531 316 144.398438 L 157.601562 144.398438 C 157.601562 122.097656 159.664062 114.210938 160.28125 111.398438 Z M 157.601562 157.601562 L 316 157.601562 L 316 368.800781 L 157.601562 368.800781 Z M 236.800781 164.199219 C 222.285156 164.199219 210.398438 176.085938 210.398438 190.601562 C 210.398438 205.113281 222.285156 217 236.800781 217 C 251.316406 217 263.199219 205.113281 263.199219 190.601562 C 263.199219 176.085938 251.316406 164.199219 236.800781 164.199219 Z M 164.199219 165.230469 L 164.199219 179.257812 C 168.117188 181.550781 170.800781 185.726562 170.800781 190.601562 C 170.800781 195.472656 168.117188 199.648438 164.199219 201.945312 L 164.199219 215.96875 C 175.570312 213.03125 184 202.871094 184 190.601562 C 184 178.328125 175.570312 168.171875 164.199219 165.230469 Z M 309.398438 165.230469 C 298.03125 168.171875 289.601562 178.328125 289.601562 190.601562 C 289.601562 202.871094 298.03125 213.03125 309.398438 215.96875 L 309.398438 201.945312 C 305.480469 199.648438 302.800781 195.472656 302.800781 190.601562 C 302.800781 185.726562 305.480469 181.550781 309.398438 179.257812 Z M 329.199219 176.574219 C 335 181.136719 342.140625 184 350.03125 184 L 356.21875 184 C 381.40625 184 401.800781 204.394531 401.800781 229.582031 L 401.800781 253.300781 C 401.800781 276.734375 394.582031 297.59375 382.414062 312.289062 C 370.242188 326.984375 353.28125 335.800781 332.5 335.800781 C 331.367188 335.800781 330.28125 335.980469 329.199219 336.210938 L 329.199219 321.363281 C 331.210938 322.058594 333.351562 322.601562 335.59375 322.601562 C 352.53125 322.601562 367.691406 313.757812 378.289062 299.5 C 388.882812 285.242188 395.199219 265.597656 395.199219 243.195312 L 395.199219 232.882812 C 395.199219 209.652344 376.148438 190.601562 352.917969 190.601562 L 345.082031 190.601562 C 339.230469 190.601562 333.761719 192.351562 329.199219 195.34375 Z M 236.800781 177.398438 C 244.171875 177.398438 250 183.226562 250 190.601562 C 250 197.972656 244.171875 203.800781 236.800781 203.800781 C 229.425781 203.800781 223.601562 197.972656 223.601562 190.601562 C 223.601562 183.226562 229.425781 177.398438 236.800781 177.398438 Z M 345.082031 203.800781 L 352.917969 203.800781 C 369.03125 203.800781 382 216.769531 382 232.882812 L 382 243.195312 C 382 263.148438 376.378906 279.878906 367.769531 291.457031 C 359.15625 303.03125 347.941406 309.398438 335.59375 309.398438 C 331.984375 309.398438 329.199219 306.617188 329.199219 303.007812 L 329.199219 219.679688 C 329.199219 210.785156 336.1875 203.800781 345.082031 203.800781 Z M 197.199219 223.601562 C 182.683594 223.601562 170.800781 235.484375 170.800781 250 C 170.800781 264.515625 182.683594 276.398438 197.199219 276.398438 C 211.714844 276.398438 223.601562 264.515625 223.601562 250 C 223.601562 235.484375 211.714844 223.601562 197.199219 223.601562 Z M 276.398438 223.601562 C 261.886719 223.601562 250 235.484375 250 250 C 250 264.515625 261.886719 276.398438 276.398438 276.398438 C 290.914062 276.398438 302.800781 264.515625 302.800781 250 C 302.800781 235.484375 290.914062 223.601562 276.398438 223.601562 Z M 197.199219 236.800781 C 204.574219 236.800781 210.398438 242.625 210.398438 250 C 210.398438 257.375 204.574219 263.199219 197.199219 263.199219 C 189.828125 263.199219 184 257.375 184 250 C 184 242.625 189.828125 236.800781 197.199219 236.800781 Z M 276.398438 236.800781 C 283.773438 236.800781 289.601562 242.625 289.601562 250 C 289.601562 257.375 283.773438 263.199219 276.398438 263.199219 C 269.027344 263.199219 263.199219 257.375 263.199219 250 C 263.199219 242.625 269.027344 236.800781 276.398438 236.800781 Z M 236.800781 283 C 222.285156 283 210.398438 294.886719 210.398438 309.398438 C 210.398438 323.914062 222.285156 335.800781 236.800781 335.800781 C 251.316406 335.800781 263.199219 323.914062 263.199219 309.398438 C 263.199219 294.886719 251.316406 283 236.800781 283 Z M 164.199219 284.03125 L 164.199219 298.054688 C 168.117188 300.351562 170.800781 304.527344 170.800781 309.398438 C 170.800781 314.273438 168.117188 318.449219 164.199219 320.742188 L 164.199219 334.769531 C 175.570312 331.828125 184 321.671875 184 309.398438 C 184 297.128906 175.570312 286.96875 164.199219 284.03125 Z M 309.398438 284.03125 C 298.03125 286.96875 289.601562 297.128906 289.601562 309.398438 C 289.601562 321.671875 298.03125 331.828125 309.398438 334.769531 L 309.398438 320.742188 C 305.480469 318.449219 302.800781 314.273438 302.800781 309.398438 C 302.800781 304.527344 305.480469 300.351562 309.398438 298.054688 Z M 236.800781 296.199219 C 244.171875 296.199219 250 302.027344 250 309.398438 C 250 316.773438 244.171875 322.601562 236.800781 322.601562 C 229.425781 322.601562 223.601562 316.773438 223.601562 309.398438 C 223.601562 302.027344 229.425781 296.199219 236.800781 296.199219 Z M 197.199219 342.398438 C 184.929688 342.398438 174.769531 350.832031 171.832031 362.199219 L 185.855469 362.199219 C 188.152344 358.28125 192.328125 355.601562 197.199219 355.601562 C 202.074219 355.601562 206.25 358.28125 208.542969 362.199219 L 222.570312 362.199219 C 219.628906 350.832031 209.472656 342.398438 197.199219 342.398438 Z M 276.398438 342.398438 C 264.128906 342.398438 253.96875 350.832031 251.03125 362.199219 L 265.054688 362.199219 C 267.351562 358.28125 271.527344 355.601562 276.398438 355.601562 C 281.273438 355.601562 285.449219 358.28125 287.742188 362.199219 L 301.769531 362.199219 C 298.828125 350.832031 288.671875 342.398438 276.398438 342.398438 Z M 157.601562 382 L 316 382 C 316 385.738281 313.136719 388.601562 309.398438 388.601562 L 164.199219 388.601562 C 160.460938 388.601562 157.601562 385.738281 157.601562 382 Z M 157.601562 382 "/>
</g>
</svg>
